<svg xmlns="http://www.w3.org/2000/svg" height="40" viewBox="0 96 960 960" width="40"><path d="M483.069 783.128q11.469 0 19.534-8.364 8.064-8.363 8.064-19.833 0-10.957-8.108-19.277-8.107-8.321-19.577-8.321-11.469 0-19.79 8.364-8.32 8.364-8.32 19.321 0 11.469 8.364 19.79 8.364 8.32 19.833 8.32Zm-20.505-130.205h34.257q1.025-23.974 9.141-41.179 8.115-17.206 33.73-40.718 28.052-26.77 40.564-48.449 12.513-21.68 12.513-48.571 0-46.314-31.204-74.955t-76.744-28.641q-40.898 0-71.577 21.846-30.68 21.846-45.654 52.462L400.308 458q11.051-24.41 30.397-39.564 19.346-15.154 51.603-15.154 39.23 0 58.692 21.5 19.462 21.5 19.462 49.885 0 21.077-11.385 38.243-11.385 17.167-31.487 35.141-30.564 28.026-42.795 52.205-12.231 24.18-12.231 52.667ZM480.134 936q-74.519 0-139.999-28.339-65.481-28.34-114.442-77.255-48.961-48.915-77.327-114.335Q120 650.652 120 576.134q0-74.673 28.339-140.41 28.34-65.737 77.255-114.365 48.915-48.627 114.335-76.993Q405.348 216 479.866 216q74.673 0 140.41 28.339 65.737 28.34 114.365 76.922 48.627 48.582 76.993 114.257Q840 501.194 840 575.866q0 74.519-28.339 139.999-28.34 65.481-76.922 114.442-48.582 48.961-114.257 77.327Q554.806 936 480.134 936ZM480 902.154q136.256 0 231.205-95.026Q806.154 712.103 806.154 576q0-136.256-94.949-231.205Q616.256 249.846 480 249.846q-136.103 0-231.128 94.949Q153.846 439.744 153.846 576q0 136.103 95.026 231.128Q343.897 902.154 480 902.154ZM480 576Z"/></svg>