<svg xmlns="http://www.w3.org/2000/svg" height="40" viewBox="0 96 960 960" width="40"><path d="m410.718 936-15.59-114.872q-21.102-6.589-46.115-20.512Q324 786.692 306.59 770.744l-106.026 47.025-69.436-122.41 93.513-69.692q-1.923-11.667-3.154-24.449-1.231-12.782-1.231-24.449 0-10.897 1.231-23.551 1.231-12.654 3.154-26.885l-93.513-70.205 69.436-120.359 105.256 45.744q19.718-16.205 43.231-29.744 23.513-13.538 45.308-20.231L410.718 216h138.564l15.59 115.641q24.436 8.897 45.423 20.82 20.987 11.923 40.808 29.052l108.846-45.744 68.923 120.359-96.59 71.692q3.462 13.359 4.18 25.244.718 11.885.718 22.936 0 10.282-1.103 22.09-1.102 11.808-3.872 26.961l95.565 70.308-69.436 122.41-107.231-47.795q-20.487 17.488-42 30.59-21.513 13.103-44.231 19.795L549.282 936H410.718Zm67.385-263.077q40.718 0 68.82-28.102 28.103-28.103 28.103-68.821 0-40.718-28.103-68.821-28.102-28.102-68.82-28.102-40.283 0-68.603 28.102-28.321 28.103-28.321 68.821 0 40.718 28.321 68.821 28.32 28.102 68.603 28.102Zm0-33.846q-26.129 0-44.603-18.474-18.474-18.475-18.474-44.603t18.474-44.603q18.474-18.474 44.603-18.474 26.641 0 44.859 18.474Q541.18 549.872 541.18 576t-18.218 44.603q-18.218 18.474-44.859 18.474ZM480 576Zm-41.128 326.154h81.154l14.769-110.256q30.538-8 55.705-22.449 25.167-14.449 51.064-39.064l101.872 43.82 39.923-69.128-89.795-66.897q4.334-18.052 6.282-32.808 1.949-14.757 1.949-29.372 0-15.897-1.872-29.885-1.872-13.987-6.359-30.756l91.334-68.436-39.923-69.128-104.18 43.897q-18.821-20.897-49.038-39.141-30.218-18.244-57.731-22.449l-12.898-110.256h-82.179l-12.462 109.487q-31.718 6.308-57.782 21.141-26.064 14.834-51.295 40.372l-102.385-43.051-39.923 69.128 89.539 66.051q-4.846 14.282-6.923 30.282t-2.077 33.513q0 15.898 2.077 31.128 2.077 15.231 6.154 30.283l-88.77 66.897 39.923 69.128 101.616-43.128q23.846 24.436 50.167 39.013 26.32 14.577 58.91 22.577l13.154 109.487Z"/></svg>