<svg xmlns="http://www.w3.org/2000/svg" height="40" viewBox="0 96 960 960" width="40"><path d="M477.487 896q-125.077 0-216.141-83.782T160.41 603.538h34Q206 713.077 286.166 787.615q80.167 74.539 191.321 74.539 120.077 0 203.603-83.936 83.526-83.936 83.526-204.013 0-119.103-83.68-201.731t-203.449-82.628q-61.41 0-116.205 25.821-54.795 25.82-97.026 70.538h97.436v33.846H205.436V263.436h33.846v99.436q46.538-49.949 108.32-78.411Q409.385 256 477.487 256q66.539 0 124.808 24.961 58.269 24.962 101.923 68.462t68.949 101.615q25.295 58.116 25.295 124.141 0 66.539-25.295 125.065-25.295 58.525-68.949 101.846-43.654 43.32-101.923 68.615Q544.026 896 477.487 896Zm133.18-167.641L464 582.513V375.026h33.846v193.487l137.077 135.59-24.256 24.256Z"/></svg>