<svg xmlns="http://www.w3.org/2000/svg" height="24" viewBox="0 96 960 960" width="24"><path d="M779.385 902.154 528.923 651.693q-30 25.538-69 39.538-39 14-78.385 14-96.1 0-162.665-66.529-66.566-66.529-66.566-162.577t66.529-162.702q66.529-66.654 162.577-66.654 96.049 0 162.702 66.565Q610.769 379.899 610.769 476q0 41.692-14.769 80.692-14.769 39-38.769 66.693l250.462 250.461-28.308 28.308ZM381.538 665.231q79.616 0 134.423-54.808Q570.769 555.615 570.769 476q0-79.615-54.808-134.423-54.807-54.808-134.423-54.808-79.615 0-134.423 54.808Q192.308 396.385 192.308 476q0 79.615 54.807 134.423 54.808 54.808 134.423 54.808Z"/></svg>