<svg xmlns="http://www.w3.org/2000/svg" height="28" viewBox="0 96 960 960" width="20"><path d="M178.461 936q-24.577 0-41.519-16.942Q120 902.116 120 877.539V514.461q0-24.577 16.942-41.519Q153.884 456 178.461 456h603.078q24.577 0 41.519 16.942Q840 489.884 840 514.461v363.078q0 24.577-16.942 41.519Q806.116 936 781.539 936H178.461Zm0-33.846h603.078q9.231 0 16.923-7.692 7.692-7.692 7.692-16.923V514.461q0-9.231-7.692-16.923-7.692-7.692-16.923-7.692H178.461q-9.231 0-16.923 7.692-7.692 7.692-7.692 16.923v363.078q0 9.231 7.692 16.923 7.692 7.692 16.923 7.692Zm243.642-86.308L600.718 696 422.103 576.82v239.026ZM176.769 379.077V345.23h606.462v33.847H176.769ZM300 268.307v-33.846h360v33.846H300ZM153.846 902.154V489.846v412.308Z"/></svg>