<svg xmlns="http://www.w3.org/2000/svg" height="40" viewBox="0 96 960 960" width="40"><path d="M180.001 656q0-88.46 39.038-159.306 39.038-70.845 88.46-122.229 49.422-51.385 94.807-82.615 45.384-31.231 57.693-40.078V348q0 46.231 31.154 73.116 31.154 26.885 69.847 26.885 18.154 0 34.616-6.615 16.461-6.615 31-20.692l17.615-17.769q61.615 40.461 98.691 107.269Q779.999 577.001 779.999 656q0 93.308-50.462 166.936T598.177 930.41q22.282-22.128 34.616-51.103 12.333-28.974 12.333-61.307 0-32.641-12.282-61.871-12.282-29.23-35.384-52.589L480 588.695 363.54 703.54q-23.974 23.564-36.32 52.627-12.346 29.064-12.346 61.833 0 32.333 12.333 61.307 12.334 28.975 34.616 51.103-80.641-33.846-131.231-107.474Q180.001 749.308 180.001 656ZM480 659.078l81.461 79.846q15.872 15.871 24.641 36.025 8.769 20.154 8.769 43.051 0 46.666-33.474 79.769-33.474 33.102-81.397 33.102-47.923 0-81.397-33.102-33.474-33.103-33.474-79.769 0-22.564 8.372-42.692 8.371-20.128 25.038-36.384L480 659.078Z"/></svg>