<svg xmlns="http://www.w3.org/2000/svg" height="40" viewBox="0 96 960 960" width="40"><path d="M233.846 656q0 72.154 38.949 132.474 38.948 60.321 104.923 89.988Q368.82 864.436 364.41 849T360 818q0-23.539 9.307-44.615 9.308-21.077 26.154-37.924L480 652.154l85.308 83.307q16.846 16.847 25.769 37.924Q600 794.461 600 818q0 15.564-4.41 31t-13.308 29.462q65.975-29.667 104.923-89.988 38.949-60.32 38.949-132.474 0-51.128-19.961-97.987-19.962-46.859-57.219-84.116-20.153 13.821-42.564 20.885-22.41 7.064-45.41 7.064-62.103 0-105.987-41.077-43.885-41.077-48.013-103.59v-6.154q-41.102 32.231-73.461 69.193-32.36 36.961-54.475 76.333-22.115 39.372-33.667 79.808-11.551 40.436-11.551 79.641ZM480 699.589l-61.205 60.206q-11.975 11.974-18.462 26.949-6.487 14.974-6.487 31.256 0 34.923 25.115 59.539 25.116 24.615 61.039 24.615t61.039-24.615q25.115-24.616 25.115-59.539 0-17.128-6.487-31.936t-18.462-26.269L480 699.589Zm-40-412.051V348q0 50.923 35.039 85.461Q510.077 468 561 468q18.769 0 36.577-6.346 17.808-6.347 33.654-18.27l17.23-13.538q52.462 38.923 82.001 98.923Q760 588.769 760 656q0 117.077-81.461 198.539Q597.077 936 480 936q-117.077 0-198.539-81.461Q200 773.077 200 656q0-102.693 64.243-201.898Q328.487 354.897 440 287.538Z"/></svg>