<svg xmlns="http://www.w3.org/2000/svg" height="24" viewBox="0 96 960 960" width="24"><path d="M480 866.767q-24.749 0-42.374-17.624-17.625-17.625-17.625-42.374 0-24.75 17.625-42.374Q455.251 746.77 480 746.77q24.749 0 42.374 17.625 17.625 17.624 17.625 42.374 0 24.749-17.625 42.374-17.625 17.624-42.374 17.624Zm0-230.768q-24.749 0-42.374-17.625-17.625-17.625-17.625-42.374 0-24.749 17.625-42.374 17.625-17.625 42.374-17.625 24.749 0 42.374 17.625 17.625 17.625 17.625 42.374 0 24.749-17.625 42.374-17.625 17.625-42.374 17.625Zm0-230.769q-24.749 0-42.374-17.625-17.625-17.624-17.625-42.374 0-24.749 17.625-42.374 17.625-17.624 42.374-17.624 24.749 0 42.374 17.624 17.625 17.625 17.625 42.374 0 24.75-17.625 42.374Q504.749 405.23 480 405.23Z"/></svg>