<svg xmlns="http://www.w3.org/2000/svg" height="40" viewBox="0 96 960 960" width="40"><path d="M189 876q-53.077 0-89.808-36.846Q62.462 802.308 62 748.681q0-7.912.615-15.373.616-7.462 2.616-15.693l84-336q12.263-47.134 49.928-76.374Q236.824 276 285 276h390q48.176 0 85.841 29.241 37.665 29.24 49.928 76.374l84 336q2 8.231 3.116 16.193Q899 741.769 899 749.681q0 53.627-37.346 89.973T771.052 876q-36.667 0-67.283-19.308-30.615-19.307-47.077-51.923L627.923 746q-7.308-15-21.923-22.5-14.615-7.5-31-7.5H385q-16.186 0-30.901 7.308-14.714 7.307-22.022 22.692l-28.769 58.769q-15.693 33.385-46.834 52.308Q225.332 876 189 876Zm2.759-33.846q25.908 0 48.057-13.777 22.15-13.777 33.21-37.223l28-57.769q12.23-24.174 34.786-37.703 22.557-13.528 49.188-13.528h190q27.08 0 49.354 14.427 22.274 14.426 35.62 37.573l28 57q11.06 23.446 33.256 37.223 22.196 13.777 48.267 13.777 39.017 0 66.722-26.346 27.704-26.346 27.935-64.808 0-3.872-2.923-25.41l-84-335q-9.205-35.103-37.575-57.923-28.369-22.821-64.656-22.821H285q-37.023 0-65.451 22.71-28.428 22.71-36.78 58.034l-84 335q-.564 4.154-2.923 24.41 0 39.577 28.185 65.866 28.185 26.288 67.728 26.288Zm348.367-318.462q11.13 0 19.348-8.344 8.218-8.344 8.218-19.474t-8.344-19.348q-8.344-8.218-19.474-8.218t-19.348 8.344q-8.218 8.344-8.218 19.474t8.344 19.348q8.344 8.218 19.474 8.218Zm80-80q11.13 0 19.348-8.344 8.218-8.344 8.218-19.474t-8.344-19.348q-8.344-8.218-19.474-8.218t-19.348 8.344q-8.218 8.344-8.218 19.474t8.344 19.348q8.344 8.218 19.474 8.218Zm0 160q11.13 0 19.348-8.344 8.218-8.343 8.218-19.474 0-11.13-8.344-19.348-8.344-8.218-19.474-8.218t-19.348 8.344q-8.218 8.343-8.218 19.474 0 11.13 8.344 19.348 8.344 8.218 19.474 8.218Zm80-80q11.13 0 19.348-8.344 8.218-8.344 8.218-19.474t-8.344-19.348q-8.344-8.218-19.474-8.218t-19.348 8.344q-8.218 8.344-8.218 19.474t8.344 19.348q8.344 8.218 19.474 8.218Zm-360.192 58.205q6.861 0 11.669-4.504 4.807-4.504 4.807-11.393v-54.103H410q6.735 0 11.573-4.485 4.837-4.486 4.837-11.346 0-6.861-4.837-11.669-4.838-4.807-11.573-4.807h-53.59V426q0-6.735-4.849-11.573-4.85-4.837-11.71-4.837-6.861 0-11.304 4.837-4.444 4.838-4.444 11.573v53.59H270q-6.889 0-11.393 4.849-4.504 4.85-4.504 11.71 0 6.861 4.504 11.304 4.504 4.444 11.393 4.444h54.103V566q0 6.889 4.485 11.393 4.486 4.504 11.346 4.504ZM480 576Z"/></svg>