<svg xmlns="http://www.w3.org/2000/svg" height="40" viewBox="0 96 960 960" width="40"><path d="M798.513 505.743Q773.975 398.231 691.231 327.09q-82.744-71.142-194.308-76.936v77.589l301.59 178ZM292.872 664.359l170.205-99.231V250.154Q417.128 255 373.897 268.5q-43.23 13.5-81.025 40.577v355.282Zm-103.539 60.103 69.692-40.257V335.384Q207 380.513 180.423 443.897q-26.577 63.385-26.577 132.39 0 38.929 8.141 76.154 8.141 37.226 27.346 72.021Zm151.795 148.102 310.205-178.615L480 593.897 205.59 753.231q24.717 39.308 58.897 70.564 34.18 31.257 76.641 48.769ZM480 902.154q83.615 0 156.026-39.436 72.41-39.436 118.384-109.128l-69.538-40.462-301.898 174.206q22.513 8.692 47.488 11.756 24.974 3.064 49.538 3.064Zm291.18-178.359q21.205-40.641 29.705-84.577t3.731-90.09L496.923 367.282v197.846L771.18 723.795ZM480 576Zm.134 360q-74.673 0-140.41-28.339-65.737-28.34-114.365-76.922-48.627-48.582-76.993-114.257Q120 650.806 120 576.134q0-74.673 28.339-140.41 28.34-65.737 76.922-114.365 48.582-48.627 114.257-76.993Q405.194 216 479.866 216q74.673 0 140.41 28.339 65.737 28.34 114.365 76.922 48.627 48.582 76.993 114.257Q840 501.194 840 575.866q0 74.673-28.339 140.41-28.34 65.737-76.922 114.365-48.582 48.627-114.257 76.993Q554.806 936 480.134 936Z"/></svg>